<?xml version="1.0" encoding="utf-8"?>
<!-- Generator: Adobe Illustrator 16.0.3, SVG Export Plug-In . SVG Version: 6.00 Build 0)  -->
<!DOCTYPE svg PUBLIC "-//W3C//DTD SVG 1.1//EN" "http://www.w3.org/Graphics/SVG/1.1/DTD/svg11.dtd">
<svg version="1.1" id="Capa_1" xmlns="http://www.w3.org/2000/svg" xmlns:xlink="http://www.w3.org/1999/xlink" x="0px" y="0px"
	 width="16px" height="16px" viewBox="0 0 16 16" enable-background="new 0 0 16 16" xml:space="preserve">
<path fill="#FFFFFF" d="M0.05,3.555C0.258,2.645,1.067,2,2,2h12c0.934,0,1.742,0.645,1.95,1.555L8,8.414L0.05,3.555z M0,4.697v7.104
	l5.803-3.558L0,4.697z M6.761,8.83l-6.57,4.027C0.522,13.556,1.227,14,2,14h12c0.773,0,1.477-0.445,1.809-1.145l-6.57-4.026L8,9.586
	L6.761,8.83L6.761,8.83z M10.197,8.244L16,11.801V4.697L10.197,8.244L10.197,8.244z"/>
</svg>
