<?xml version="1.0" encoding="utf-8"?>
<!-- Generator: Adobe Illustrator 16.0.3, SVG Export Plug-In . SVG Version: 6.00 Build 0)  -->
<!DOCTYPE svg PUBLIC "-//W3C//DTD SVG 1.1//EN" "http://www.w3.org/Graphics/SVG/1.1/DTD/svg11.dtd">
<svg version="1.1" id="Capa_1" xmlns="http://www.w3.org/2000/svg" xmlns:xlink="http://www.w3.org/1999/xlink" x="0px" y="0px"
	 width="16px" height="16px" viewBox="0 0 16 16" enable-background="new 0 0 16 16" xml:space="preserve">
<path fill="#FFFFFF" stroke="#FFFFFF" stroke-miterlimit="10" d="M16,8.049c0-4.446-3.582-8.05-8-8.05
	C3.58,0-0.002,3.603-0.002,8.05c0,4.017,2.926,7.347,6.75,7.951v-5.625h-2.03V8.05H6.75V6.275c0-2.017,1.195-3.131,3.021-3.131
	c0.877,0,1.791,0.157,1.791,0.157v1.979h-1.008c-0.994,0-1.304,0.621-1.304,1.258v1.51h2.218l-0.354,2.326H9.25V16
	C13.074,15.396,16,12.066,16,8.049z"/>
</svg>
