<?xml version="1.0" encoding="utf-8"?>
<!-- Generator: Adobe Illustrator 16.0.3, SVG Export Plug-In . SVG Version: 6.00 Build 0)  -->
<!DOCTYPE svg PUBLIC "-//W3C//DTD SVG 1.1//EN" "http://www.w3.org/Graphics/SVG/1.1/DTD/svg11.dtd">
<svg version="1.1" id="Capa_1" xmlns="http://www.w3.org/2000/svg" xmlns:xlink="http://www.w3.org/1999/xlink" x="0px" y="0px"
	 width="16px" height="16px" viewBox="0 0 16 16" enable-background="new 0 0 16 16" xml:space="preserve">
<path fill="#FFFFFF" d="M8,0C5.829,0,5.556,0.01,4.703,0.048C3.85,0.088,3.269,0.222,2.76,0.42C2.226,0.621,1.743,0.936,1.343,1.343
	C0.936,1.743,0.621,2.226,0.42,2.76C0.222,3.268,0.087,3.85,0.048,4.7C0.01,5.555,0,5.827,0,8.001c0,2.172,0.01,2.444,0.048,3.297
	c0.04,0.853,0.174,1.433,0.372,1.942c0.205,0.525,0.478,0.972,0.923,1.416c0.444,0.445,0.89,0.72,1.416,0.924
	c0.51,0.197,1.09,0.333,1.942,0.372C5.555,15.99,5.827,16,8,16s2.443-0.01,3.298-0.048c0.851-0.04,1.435-0.175,1.943-0.372
	c0.533-0.201,1.017-0.516,1.416-0.924c0.444-0.444,0.718-0.891,0.923-1.416c0.197-0.51,0.332-1.09,0.372-1.942
	C15.99,10.445,16,10.173,16,8s-0.01-2.445-0.048-3.299c-0.04-0.851-0.175-1.433-0.372-1.941c-0.201-0.534-0.516-1.018-0.923-1.417
	c-0.399-0.408-0.884-0.723-1.417-0.923c-0.51-0.198-1.092-0.333-1.943-0.372C10.443,0.01,10.172,0,7.998,0H8L8,0z M7.283,1.442
	h0.718c2.136,0,2.39,0.007,3.231,0.046c0.781,0.035,1.205,0.166,1.486,0.275c0.373,0.145,0.641,0.319,0.92,0.599
	c0.28,0.28,0.453,0.546,0.598,0.92c0.111,0.281,0.24,0.705,0.275,1.485c0.039,0.843,0.047,1.096,0.047,3.231
	c0,2.135-0.008,2.389-0.047,3.232c-0.035,0.779-0.166,1.203-0.275,1.484c-0.127,0.348-0.332,0.662-0.598,0.919
	c-0.281,0.28-0.547,0.453-0.921,0.599c-0.28,0.109-0.704,0.24-1.485,0.275c-0.842,0.038-1.096,0.047-3.231,0.047
	s-2.39-0.009-3.233-0.047c-0.78-0.035-1.203-0.166-1.485-0.275c-0.348-0.129-0.662-0.333-0.92-0.599
	c-0.266-0.258-0.471-0.572-0.6-0.92c-0.109-0.28-0.24-0.705-0.275-1.485c-0.038-0.842-0.046-1.096-0.046-3.232
	c0-2.136,0.008-2.388,0.046-3.231c0.036-0.78,0.166-1.204,0.276-1.486c0.145-0.373,0.319-0.64,0.599-0.92
	c0.28-0.28,0.546-0.453,0.92-0.598c0.282-0.11,0.705-0.24,1.485-0.276C5.506,1.451,5.792,1.441,7.283,1.44V1.442z M12.271,2.77
	c-0.531,0-0.961,0.43-0.961,0.96s0.43,0.96,0.961,0.96c0.529,0,0.959-0.43,0.959-0.96S12.801,2.77,12.271,2.77z M8.001,3.892
	C5.732,3.856,3.864,5.667,3.829,7.937c-0.036,2.269,1.775,4.138,4.044,4.173c0.043,0,0.086,0,0.128,0
	c2.269-0.035,4.079-1.904,4.044-4.173C12.011,5.717,10.221,3.927,8.001,3.892z M8.001,5.333c1.474,0,2.667,1.193,2.668,2.666
	c0.001,1.473-1.192,2.667-2.666,2.668c-0.001,0-0.001,0-0.002,0c-1.473,0-2.667-1.194-2.667-2.667
	C5.334,6.527,6.528,5.333,8.001,5.333z"/>
</svg>
