<?xml version="1.0" encoding="utf-8"?>
<!-- Generator: Adobe Illustrator 16.0.3, SVG Export Plug-In . SVG Version: 6.00 Build 0)  -->
<!DOCTYPE svg PUBLIC "-//W3C//DTD SVG 1.1//EN" "http://www.w3.org/Graphics/SVG/1.1/DTD/svg11.dtd">
<svg version="1.1" id="Capa_1" xmlns="http://www.w3.org/2000/svg" xmlns:xlink="http://www.w3.org/1999/xlink" x="0px" y="0px"
	 width="16px" height="16px" viewBox="0 0 16 16" enable-background="new 0 0 16 16" xml:space="preserve">
<path fill="#FFFFFF" stroke="#FFFFFF" stroke-miterlimit="10" d="M5.026,15c6.039,0,9.341-5.003,9.341-9.334
	c0-0.14,0-0.282-0.006-0.422C15.004,4.778,15.559,4.202,16,3.542c-0.601,0.265-1.237,0.439-1.889,0.518
	c0.686-0.41,1.2-1.056,1.447-1.817c-0.646,0.382-1.352,0.65-2.088,0.793c-1.242-1.323-3.321-1.389-4.645-0.146
	C7.972,3.692,7.609,4.889,7.875,6.03c-2.64-0.132-5.099-1.378-6.767-3.429c-0.869,1.5-0.423,3.418,1.018,4.382
	C1.605,6.965,1.097,6.826,0.64,6.575V6.62c0.002,1.562,1.102,2.906,2.632,3.218C2.99,9.916,2.699,9.954,2.407,9.953
	c-0.206,0-0.412-0.019-0.614-0.057c0.43,1.336,1.663,2.252,3.067,2.276c-1.163,0.914-2.601,1.409-4.08,1.407
	C0.52,13.581,0.259,13.566,0,13.535C1.501,14.492,3.245,15,5.026,15z"/>
</svg>
