<?xml version="1.0" encoding="utf-8"?>
<!-- Generator: Adobe Illustrator 16.0.3, SVG Export Plug-In . SVG Version: 6.00 Build 0)  -->
<!DOCTYPE svg PUBLIC "-//W3C//DTD SVG 1.1//EN" "http://www.w3.org/Graphics/SVG/1.1/DTD/svg11.dtd">
<svg version="1.1" id="Capa_1" xmlns="http://www.w3.org/2000/svg" xmlns:xlink="http://www.w3.org/1999/xlink" x="0px" y="0px"
	 width="16px" height="16px" viewBox="0 0 16 16" enable-background="new 0 0 16 16" xml:space="preserve">
<path fill="#FFFFFF" stroke="#FFFFFF" stroke-miterlimit="10" d="M8.051,1.999H8.14c0.822,0.003,4.987,0.033,6.11,0.335
	c0.691,0.188,1.23,0.729,1.415,1.42c0.101,0.38,0.172,0.883,0.22,1.402l0.01,0.104l0.022,0.26l0.008,0.104
	c0.065,0.914,0.073,1.77,0.074,1.957v0.075c-0.001,0.194-0.011,1.108-0.082,2.06L15.909,9.82L15.9,9.925
	c-0.051,0.572-0.125,1.14-0.235,1.558c-0.185,0.692-0.724,1.233-1.415,1.42c-1.16,0.313-5.568,0.334-6.18,0.336H7.928
	c-0.309,0-1.587-0.006-2.927-0.053l-0.17-0.006l-0.087-0.004l-0.171-0.007l-0.171-0.007c-1.11-0.049-2.167-0.128-2.654-0.26
	c-0.691-0.188-1.23-0.729-1.415-1.42c-0.111-0.416-0.185-0.985-0.235-1.558L0.09,9.82L0.082,9.716C0.033,9.039,0.005,8.359,0,7.68
	V7.557c0.002-0.215,0.01-0.958,0.064-1.778l0.007-0.103l0.003-0.052L0.082,5.52l0.022-0.26l0.01-0.104
	c0.048-0.519,0.119-1.023,0.22-1.402c0.185-0.692,0.724-1.233,1.415-1.42c0.487-0.13,1.544-0.21,2.654-0.26l0.17-0.007l0.172-0.006
	l0.086-0.003l0.171-0.007C5.954,2.021,6.906,2.003,7.858,2L8.051,1.999L8.051,1.999z M6.4,5.209v4.818l4.157-2.408L6.4,5.209z"/>
</svg>
